<svg width="54" height="54" viewBox="0 0 54 54" fill="none" xmlns="http://www.w3.org/2000/svg">
<path d="M48.5251 49.8547H5.68056C4.2277 49.8547 3.04968 48.6767 3.04968 47.2238V28.4324C3.04968 26.9795 4.2277 25.8015 5.68056 25.8015H48.5251C49.978 25.8015 51.156 26.9795 51.156 28.4324V47.2238C51.156 48.6772 49.978 49.8547 48.5251 49.8547Z" fill="black"/>
<path d="M32.1413 19.4507H22.2255C19.586 19.4507 17.4382 17.3036 17.4382 14.6641V8.78722C17.4382 6.14774 19.5854 4 22.2255 4H32.1413C34.7808 4 36.9285 6.14716 36.9285 8.78722V14.6641C36.9285 17.3036 34.7808 19.4507 32.1413 19.4507ZM22.226 6.16208C20.7783 6.16208 19.6009 7.33952 19.6009 8.78722V14.6641C19.6009 16.1118 20.7783 17.2892 22.226 17.2892H32.1419C33.5896 17.2892 34.767 16.1118 34.767 14.6641V8.78722C34.767 7.33952 33.5896 6.16208 32.1419 6.16208H22.226Z" fill="black"/>
<path opacity="0.11" d="M31.4883 38.0688L45.8322 42.1542C48.6289 42.9507 51.4106 40.8506 51.4106 37.9431V33.5685C51.4106 31.1155 49.396 29.141 46.9436 29.1904L32.5997 29.479C27.5721 29.5805 26.6523 36.6911 31.4883 38.0688Z" fill="black"/>
<path d="M50.5001 36.3784H3.70547C2.21129 36.3784 1 35.1671 1 33.6729V12.9811C1 11.4869 2.21129 10.2756 3.70547 10.2756H50.5001C51.9942 10.2756 53.2055 11.4869 53.2055 12.9811V33.6729C53.2061 35.1671 51.9948 36.3784 50.5001 36.3784Z" fill="black"/>
<path opacity="0.11" d="M19.8391 17.579L47.2174 31.2681C48.8097 32.064 50.6831 30.9066 50.6831 29.1261V15.5334C50.6831 14.2159 49.621 13.1464 48.3036 13.1389C43.0229 13.1091 30.0676 13.0413 20.9086 13.0425C18.3822 13.0425 17.5794 16.4486 19.8391 17.579Z" fill="black"/>
</svg>
