<svg width="33" height="33" viewBox="0 0 33 33" fill="none" xmlns="http://www.w3.org/2000/svg">
<path d="M28.7637 30.0113H3.36699C2.50578 30.0113 1.8075 29.313 1.8075 28.4518V17.3129C1.8075 16.4517 2.50578 15.7534 3.36699 15.7534H28.7637C29.6249 15.7534 30.3232 16.4517 30.3232 17.3129V28.4518C30.3232 29.3133 29.6249 30.0113 28.7637 30.0113Z" fill="black"/>
<path d="M19.052 11.9887H13.1742C11.6096 11.9887 10.3365 10.716 10.3365 9.15136V5.66777C10.3365 4.10318 11.6093 2.83008 13.1742 2.83008H19.052C20.6166 2.83008 21.8897 4.10284 21.8897 5.66777V9.15136C21.8897 10.716 20.6166 11.9887 19.052 11.9887ZM13.1746 4.11168C12.3164 4.11168 11.6185 4.80963 11.6185 5.66777V9.15136C11.6185 10.0095 12.3164 10.7075 13.1746 10.7075H19.0523C19.9105 10.7075 20.6084 10.0095 20.6084 9.15136V5.66777C20.6084 4.80963 19.9105 4.11168 19.0523 4.11168H13.1746Z" fill="black"/>
<path d="M18.1666 21.163V22.8823C18.1666 23.9854 17.2639 24.8881 16.1609 24.8881C15.0578 24.8881 14.1552 23.9854 14.1552 22.8823V21.163C14.1552 20.0599 15.0578 19.1572 16.1609 19.1572C17.2643 19.1572 18.1666 20.0599 18.1666 21.163Z" fill="white"/>
<path opacity="0.11" d="M18.6649 23.0248L27.1675 25.4465C28.8253 25.9186 30.4742 24.6738 30.4742 22.9503V20.3572C30.4742 18.9031 29.28 17.7328 27.8263 17.762L19.3238 17.9331C16.3436 17.9933 15.7983 22.2082 18.6649 23.0248Z" fill="black"/>
<path d="M29.9345 22.0228H2.19635C1.31066 22.0228 0.592651 21.3048 0.592651 20.4191V8.15375C0.592651 7.26806 1.31066 6.55005 2.19635 6.55005H29.9345C30.8202 6.55005 31.5382 7.26806 31.5382 8.15375V20.4191C31.5385 21.3048 30.8205 22.0228 29.9345 22.0228Z" fill="black"/>
<path opacity="0.11" d="M11.7598 10.8792L27.9887 18.9937C28.9325 19.4654 30.043 18.7794 30.043 17.724V9.66669C30.043 8.88575 29.4134 8.25176 28.6325 8.24734C25.5023 8.22965 17.8229 8.18951 12.3938 8.19019C10.8962 8.19019 10.4203 10.2092 11.7598 10.8792Z" fill="black"/>
</svg>
