<svg width="55" height="54" viewBox="0 0 55 54" fill="none" xmlns="http://www.w3.org/2000/svg">
<path d="M26.3596 30.2144H29.1354C34.6269 29.0485 38.9927 21.215 38.9927 15.0637C38.9927 8.40108 34.0263 3 27.9001 3C21.7738 3 16.8075 8.40108 16.8075 15.0637C16.8075 21.215 20.9087 29.0484 26.3596 30.2144Z" fill="black"/>
<path d="M42.623 30.2144H38.4663C37.4178 31.4192 36.2783 32.4444 35.0599 33.2742C34.3595 33.7511 33.6356 34.1596 32.8971 34.4962C32.5021 34.6762 32.103 34.8361 31.7008 34.974C30.405 35.4185 29.074 35.6439 27.7449 35.6439C26.4093 35.6439 25.0767 35.4164 23.7842 34.9678C23.4534 34.853 23.125 34.723 22.7996 34.5792C21.9881 34.2207 21.1956 33.7738 20.4338 33.2434C19.2505 32.4197 18.1469 31.4055 17.1351 30.2144H13.2414C8.02211 30.2144 3.79102 34.4454 3.79102 39.6647V44.8466V51H52.0734V44.8466V39.6647C52.0734 34.4454 47.8423 30.2144 42.623 30.2144Z" fill="black"/>
</svg>
